<svg width="128" height="128" viewBox="0 0 128 128" fill="none" xmlns="http://www.w3.org/2000/svg">
<rect width="128" height="128" fill="white"/>
<path d="M34.1562 96.9219V36.0781H43.3906V96.9219C43.3906 98.2031 43.1406 99.4062 42.6406 100.531C42.1719 101.656 41.5156 102.625 40.6719 103.438C39.8594 104.281 38.8906 104.938 37.7656 105.406C36.6406 105.906 35.4375 106.156 34.1562 106.156H26.9375V96.9219H34.1562ZM33.6875 16.8594H43.8594V26.4688H33.6875V16.8594ZM59.2812 45.3125C59.2812 44.0312 59.5156 42.8281 59.9844 41.7031C60.4844 40.5781 61.1406 39.6094 61.9531 38.7969C62.7969 37.9531 63.7812 37.2969 64.9062 36.8281C66.0312 36.3281 67.2188 36.0781 68.4688 36.0781H85.0156C86.2344 36.0781 87.3906 36.3125 88.4844 36.7812C89.5781 37.2188 90.5312 37.8438 91.3438 38.6562C92.1875 39.4375 92.8594 40.375 93.3594 41.4688C93.8906 42.5312 94.1719 43.6719 94.2031 44.8906V36.0781H103.438V96.9219C103.438 98.2031 103.188 99.4062 102.688 100.531C102.219 101.656 101.562 102.625 100.719 103.438C99.9062 104.281 98.9375 104.938 97.8125 105.406C96.6875 105.906 95.4844 106.156 94.2031 106.156H65.0469V96.9219H94.2031V84.0781H68.4688C67.2188 84.0781 66.0312 83.8438 64.9062 83.375C63.7812 82.875 62.7969 82.2188 61.9531 81.4062C61.1406 80.5625 60.4844 79.5781 59.9844 78.4531C59.5156 77.3281 59.2812 76.125 59.2812 74.8438V45.3125ZM94.2031 74.8438V45.3125H68.4688V74.8438H94.2031Z" fill="black"/>
</svg>
